<mxfile host="app.diagrams.net" modified="2023-09-06T09:05:46.712Z" agent="Mozilla/5.0 (Windows NT 10.0; Win64; x64) AppleWebKit/537.36 (KHTML, like Gecko) Chrome/108.0.0.0 Safari/537.36 Edg/108.0.1462.46" version="21.7.2" etag="WzRmTNLlc6v3fZpPqKQj" type="github">
  <diagram name="第 1 页" id="vwGNG27N2L6G9kMbayPh">
    <mxGraphModel>
      <root>
        <mxCell id="0" />
        <mxCell id="1" parent="0" />
      </root>
    </mxGraphModel>
  </diagram>
</mxfile>
